<mxfile host="65bd71144e">
    <diagram id="VPsidG5UPo3SP2NgHH7p" name="Page-1">
        <mxGraphModel dx="827" dy="618" grid="0" gridSize="10" guides="1" tooltips="1" connect="1" arrows="1" fold="1" page="1" pageScale="1" pageWidth="1169" pageHeight="827" background="#ffffff" math="0" shadow="0">
            <root>
                <mxCell id="0"/>
                <mxCell id="1" parent="0"/>
                <mxCell id="73" value="" style="rounded=0;whiteSpace=wrap;html=1;fontSize=15;fontColor=#14213D;strokeColor=#000000;fillColor=#CCCCCC;dashed=1;strokeWidth=2;gradientColor=none;perimeterSpacing=0;dashPattern=1 2;" vertex="1" parent="1">
                    <mxGeometry x="540" y="540" width="230" height="180" as="geometry"/>
                </mxCell>
                <mxCell id="37" value="" style="rounded=1;whiteSpace=wrap;html=1;fontFamily=Times New Roman;fontSize=15;fillColor=#B5C99A;strokeColor=#718355;fontStyle=0" parent="1" vertex="1">
                    <mxGeometry x="186" y="281" width="130" height="80" as="geometry"/>
                </mxCell>
                <mxCell id="36" value="" style="rounded=1;whiteSpace=wrap;html=1;fontFamily=Times New Roman;fontSize=15;fillColor=#B5C99A;strokeColor=#718355;fontStyle=0" parent="1" vertex="1">
                    <mxGeometry x="370" y="281" width="130" height="80" as="geometry"/>
                </mxCell>
                <mxCell id="22" value="" style="rounded=1;whiteSpace=wrap;html=1;fontFamily=Times New Roman;fontSize=15;fillColor=#B5C99A;strokeColor=#718355;fontStyle=0" parent="1" vertex="1">
                    <mxGeometry x="10" y="281" width="130" height="80" as="geometry"/>
                </mxCell>
                <mxCell id="20" value="" style="rounded=1;whiteSpace=wrap;html=1;fontFamily=Times New Roman;fontSize=15;fontColor=#333333;fillColor=#B5C99A;strokeColor=#718355;fontStyle=0" parent="1" vertex="1">
                    <mxGeometry x="10" y="150" width="650" height="80" as="geometry"/>
                </mxCell>
                <mxCell id="14" style="edgeStyle=none;html=1;exitX=1;exitY=0.5;exitDx=0;exitDy=0;entryX=0;entryY=0.5;entryDx=0;entryDy=0;fontFamily=Times New Roman;fontSize=15;fontColor=#000000;strokeColor=#000000;fontStyle=0" parent="1" source="2" target="3" edge="1">
                    <mxGeometry relative="1" as="geometry"/>
                </mxCell>
                <mxCell id="2" value="&lt;p style=&quot;font-size: 15px;&quot;&gt;&lt;font face=&quot;Times New Roman&quot; style=&quot;font-size: 15px;&quot; color=&quot;#000000&quot;&gt;Data collection&lt;/font&gt;&lt;/p&gt;" style="rounded=1;whiteSpace=wrap;html=1;fillColor=#97A97C;strokeColor=#718355;fontSize=15;fontStyle=0" parent="1" vertex="1">
                    <mxGeometry x="20" y="160" width="110" height="60" as="geometry"/>
                </mxCell>
                <mxCell id="15" style="edgeStyle=none;html=1;exitX=1;exitY=0.5;exitDx=0;exitDy=0;entryX=0;entryY=0.5;entryDx=0;entryDy=0;fontFamily=Times New Roman;fontSize=15;fontColor=#000000;strokeColor=#000000;fontStyle=0" parent="1" source="3" target="4" edge="1">
                    <mxGeometry relative="1" as="geometry"/>
                </mxCell>
                <mxCell id="3" value="&lt;p style=&quot;font-size: 15px;&quot;&gt;&lt;font face=&quot;Times New Roman&quot; style=&quot;font-size: 15px;&quot; color=&quot;#000000&quot;&gt;Data discovery and profiling&lt;/font&gt;&lt;/p&gt;" style="rounded=1;whiteSpace=wrap;html=1;fillColor=#97A97C;strokeColor=#718355;fontSize=15;fontStyle=0" parent="1" vertex="1">
                    <mxGeometry x="150" y="160" width="110" height="60" as="geometry"/>
                </mxCell>
                <mxCell id="16" style="edgeStyle=none;html=1;exitX=1;exitY=0.5;exitDx=0;exitDy=0;entryX=0;entryY=0.5;entryDx=0;entryDy=0;fontFamily=Times New Roman;fontSize=15;fontColor=#000000;strokeColor=#000000;fontStyle=0" parent="1" source="4" target="5" edge="1">
                    <mxGeometry relative="1" as="geometry"/>
                </mxCell>
                <mxCell id="4" value="&lt;p style=&quot;font-size: 15px;&quot;&gt;&lt;font face=&quot;Times New Roman&quot; style=&quot;font-size: 15px;&quot; color=&quot;#000000&quot;&gt;Data cleansing&lt;/font&gt;&lt;/p&gt;" style="rounded=1;whiteSpace=wrap;html=1;fillColor=#97A97C;strokeColor=#718355;fontSize=15;fontStyle=0" parent="1" vertex="1">
                    <mxGeometry x="280" y="160" width="110" height="60" as="geometry"/>
                </mxCell>
                <mxCell id="17" style="edgeStyle=none;html=1;exitX=1;exitY=0.5;exitDx=0;exitDy=0;fontFamily=Times New Roman;fontSize=15;fontColor=#000000;strokeColor=#000000;fontStyle=0" parent="1" source="5" target="6" edge="1">
                    <mxGeometry relative="1" as="geometry"/>
                </mxCell>
                <mxCell id="5" value="&lt;p style=&quot;font-size: 15px;&quot;&gt;&lt;font face=&quot;Times New Roman&quot; style=&quot;font-size: 15px;&quot; color=&quot;#000000&quot;&gt;Data structuring&lt;/font&gt;&lt;/p&gt;" style="rounded=1;whiteSpace=wrap;html=1;fillColor=#97A97C;strokeColor=#718355;fontSize=15;fontStyle=0" parent="1" vertex="1">
                    <mxGeometry x="410" y="160" width="110" height="60" as="geometry"/>
                </mxCell>
                <mxCell id="6" value="&lt;p style=&quot;font-size: 15px;&quot;&gt;&lt;font face=&quot;Times New Roman&quot; style=&quot;font-size: 15px;&quot; color=&quot;#000000&quot;&gt;Data transformation and enrichment&lt;/font&gt;&lt;/p&gt;" style="rounded=1;whiteSpace=wrap;html=1;fillColor=#97A97C;strokeColor=#718355;fontSize=15;fontStyle=0" parent="1" vertex="1">
                    <mxGeometry x="540" y="160" width="110" height="60" as="geometry"/>
                </mxCell>
                <mxCell id="12" value="&lt;p style=&quot;font-size: 15px;&quot;&gt;&lt;font face=&quot;Times New Roman&quot; style=&quot;font-size: 15px;&quot; color=&quot;#000000&quot;&gt;Baseline model training&lt;/font&gt;&lt;/p&gt;" style="rounded=1;whiteSpace=wrap;html=1;fillColor=#97A97C;strokeColor=#718355;fontSize=15;fontStyle=0" parent="1" vertex="1">
                    <mxGeometry x="20" y="291" width="110" height="60" as="geometry"/>
                </mxCell>
                <mxCell id="13" value="&lt;p style=&quot;font-size: 15px;&quot;&gt;&lt;font face=&quot;Times New Roman&quot; style=&quot;font-size: 15px;&quot; color=&quot;#000000&quot;&gt;&amp;nbsp;Model evaluation&lt;/font&gt;&lt;/p&gt;" style="rounded=1;whiteSpace=wrap;html=1;fillColor=#97A97C;strokeColor=#718355;fontSize=15;fontStyle=0" parent="1" vertex="1">
                    <mxGeometry x="196" y="291" width="110" height="60" as="geometry"/>
                </mxCell>
                <mxCell id="25" value="&lt;p style=&quot;font-size: 15px;&quot;&gt;&lt;font face=&quot;Times New Roman&quot; style=&quot;font-size: 15px;&quot; color=&quot;#000000&quot;&gt;Final result&lt;/font&gt;&lt;/p&gt;" style="rounded=1;whiteSpace=wrap;html=1;fillColor=#97A97C;strokeColor=#718355;fontSize=15;fontStyle=0" parent="1" vertex="1">
                    <mxGeometry x="380" y="291" width="110" height="60" as="geometry"/>
                </mxCell>
                <mxCell id="28" value="" style="endArrow=classic;html=1;fontFamily=Times New Roman;fontSize=15;fontColor=#000000;strokeColor=#718355;strokeWidth=3;fontStyle=0" parent="1" edge="1">
                    <mxGeometry width="50" height="50" relative="1" as="geometry">
                        <mxPoint x="323" y="320.44" as="sourcePoint"/>
                        <mxPoint x="363" y="320.44" as="targetPoint"/>
                    </mxGeometry>
                </mxCell>
                <mxCell id="29" value="" style="verticalLabelPosition=bottom;verticalAlign=top;html=1;shape=mxgraph.basic.tick;rounded=0;fontFamily=Times New Roman;fontSize=15;fontColor=#000000;strokeColor=#000000;fillColor=#FE6D73;" parent="1" vertex="1">
                    <mxGeometry x="70" y="110" width="25.5" height="30" as="geometry"/>
                </mxCell>
                <mxCell id="31" value="" style="verticalLabelPosition=bottom;verticalAlign=top;html=1;shape=mxgraph.basic.tick;rounded=0;fontFamily=Times New Roman;fontSize=15;fontColor=#000000;strokeColor=#000000;fillColor=#FE6D73;" parent="1" vertex="1">
                    <mxGeometry x="197" y="110" width="25.5" height="30" as="geometry"/>
                </mxCell>
                <mxCell id="33" value="" style="verticalLabelPosition=bottom;verticalAlign=top;html=1;shape=mxgraph.basic.tick;rounded=0;fontFamily=Times New Roman;fontSize=15;fontColor=#000000;strokeColor=#000000;fillColor=#FE6D73;" parent="1" vertex="1">
                    <mxGeometry x="323" y="110" width="25.5" height="30" as="geometry"/>
                </mxCell>
                <mxCell id="34" value="" style="verticalLabelPosition=bottom;verticalAlign=top;html=1;shape=mxgraph.basic.tick;rounded=0;fontFamily=Times New Roman;fontSize=15;fontColor=#000000;strokeColor=#000000;fillColor=#FE6D73;" parent="1" vertex="1">
                    <mxGeometry x="450" y="110" width="25.5" height="30" as="geometry"/>
                </mxCell>
                <mxCell id="38" value="" style="endArrow=classic;html=1;fontFamily=Times New Roman;fontSize=15;fontColor=#000000;strokeColor=#718355;strokeWidth=3;fontStyle=0" parent="1" edge="1">
                    <mxGeometry width="50" height="50" relative="1" as="geometry">
                        <mxPoint x="143" y="320.44" as="sourcePoint"/>
                        <mxPoint x="183" y="320.44" as="targetPoint"/>
                    </mxGeometry>
                </mxCell>
                <mxCell id="40" value="" style="endArrow=none;html=1;fontFamily=Times New Roman;fontSize=15;fontColor=#000000;strokeColor=#718355;strokeWidth=3;exitX=1;exitY=0.5;exitDx=0;exitDy=0;" parent="1" source="20" edge="1">
                    <mxGeometry width="50" height="50" relative="1" as="geometry">
                        <mxPoint x="650" y="310" as="sourcePoint"/>
                        <mxPoint x="680" y="190" as="targetPoint"/>
                    </mxGeometry>
                </mxCell>
                <mxCell id="41" value="" style="edgeStyle=elbowEdgeStyle;elbow=horizontal;endArrow=none;html=1;fontFamily=Times New Roman;fontSize=15;fontColor=#000000;strokeColor=#718355;strokeWidth=3;endFill=0;" parent="1" edge="1">
                    <mxGeometry width="50" height="50" relative="1" as="geometry">
                        <mxPoint x="678.5" y="190" as="sourcePoint"/>
                        <mxPoint x="250" y="250" as="targetPoint"/>
                        <Array as="points">
                            <mxPoint x="688.5" y="230"/>
                        </Array>
                    </mxGeometry>
                </mxCell>
                <mxCell id="42" value="" style="edgeStyle=elbowEdgeStyle;elbow=horizontal;endArrow=classic;html=1;fontFamily=Times New Roman;fontSize=15;fontColor=#000000;strokeColor=#718355;strokeWidth=3;entryX=0.5;entryY=0;entryDx=0;entryDy=0;" parent="1" target="22" edge="1">
                    <mxGeometry width="50" height="50" relative="1" as="geometry">
                        <mxPoint x="250" y="250" as="sourcePoint"/>
                        <mxPoint x="100" y="270" as="targetPoint"/>
                        <Array as="points">
                            <mxPoint x="75" y="250"/>
                        </Array>
                    </mxGeometry>
                </mxCell>
                <mxCell id="56" style="edgeStyle=elbowEdgeStyle;rounded=0;html=1;exitX=0.5;exitY=0;exitDx=0;exitDy=0;entryX=0;entryY=0.5;entryDx=0;entryDy=0;fontSize=14;fontColor=#14213D;strokeColor=#000000;strokeWidth=3;" edge="1" parent="1" source="43" target="46">
                    <mxGeometry relative="1" as="geometry">
                        <Array as="points">
                            <mxPoint x="240" y="560"/>
                        </Array>
                    </mxGeometry>
                </mxCell>
                <mxCell id="57" style="edgeStyle=elbowEdgeStyle;rounded=0;html=1;exitX=0.5;exitY=1;exitDx=0;exitDy=0;entryX=0;entryY=0.5;entryDx=0;entryDy=0;fontSize=14;fontColor=#14213D;strokeColor=#000000;strokeWidth=3;" edge="1" parent="1" source="43" target="47">
                    <mxGeometry relative="1" as="geometry">
                        <Array as="points">
                            <mxPoint x="240" y="680"/>
                        </Array>
                    </mxGeometry>
                </mxCell>
                <mxCell id="43" value="&lt;font color=&quot;#fca311&quot; style=&quot;font-size: 14px;&quot;&gt;Retrieve Data&lt;/font&gt;" style="rounded=1;whiteSpace=wrap;html=1;fillColor=#4C5C68;strokeColor=#000000;fontSize=14;" vertex="1" parent="1">
                    <mxGeometry x="200" y="580" width="80" height="80" as="geometry"/>
                </mxCell>
                <mxCell id="59" style="edgeStyle=elbowEdgeStyle;rounded=0;html=1;exitX=1;exitY=0.5;exitDx=0;exitDy=0;entryX=0.5;entryY=0;entryDx=0;entryDy=0;fontSize=15;fontColor=#14213D;strokeColor=#000000;strokeWidth=3;" edge="1" parent="1" source="46" target="50">
                    <mxGeometry relative="1" as="geometry">
                        <Array as="points">
                            <mxPoint x="720" y="570"/>
                        </Array>
                    </mxGeometry>
                </mxCell>
                <mxCell id="46" value="&lt;font color=&quot;#fca311&quot; style=&quot;font-size: 14px;&quot;&gt;Testing Dataset&lt;br style=&quot;font-size: 14px;&quot;&gt;&lt;/font&gt;" style="rounded=1;whiteSpace=wrap;html=1;fillColor=#4C5C68;strokeColor=#000000;fontSize=14;" vertex="1" parent="1">
                    <mxGeometry x="320" y="480" width="80" height="80" as="geometry"/>
                </mxCell>
                <mxCell id="60" style="edgeStyle=elbowEdgeStyle;rounded=0;html=1;exitX=0.5;exitY=0;exitDx=0;exitDy=0;entryX=0;entryY=0.5;entryDx=0;entryDy=0;fontSize=15;fontColor=#14213D;strokeColor=#000000;strokeWidth=3;" edge="1" parent="1" source="47" target="49">
                    <mxGeometry relative="1" as="geometry">
                        <Array as="points">
                            <mxPoint x="360" y="630"/>
                        </Array>
                    </mxGeometry>
                </mxCell>
                <mxCell id="61" style="edgeStyle=elbowEdgeStyle;rounded=0;html=1;exitX=0.5;exitY=1;exitDx=0;exitDy=0;fontSize=15;fontColor=#14213D;strokeColor=#000000;strokeWidth=3;entryX=0;entryY=0.5;entryDx=0;entryDy=0;" edge="1" parent="1" source="47" target="48">
                    <mxGeometry relative="1" as="geometry">
                        <mxPoint x="440" y="740" as="targetPoint"/>
                        <Array as="points">
                            <mxPoint x="360" y="740"/>
                        </Array>
                    </mxGeometry>
                </mxCell>
                <mxCell id="47" value="&lt;font color=&quot;#fca311&quot; style=&quot;font-size: 14px;&quot;&gt;Training Dataset&lt;br style=&quot;font-size: 14px;&quot;&gt;&lt;/font&gt;" style="rounded=1;whiteSpace=wrap;html=1;fillColor=#4C5C68;strokeColor=#000000;fontSize=14;" vertex="1" parent="1">
                    <mxGeometry x="320" y="640" width="80" height="80" as="geometry"/>
                </mxCell>
                <mxCell id="65" style="edgeStyle=elbowEdgeStyle;rounded=0;html=1;exitX=1;exitY=0.5;exitDx=0;exitDy=0;entryX=0.25;entryY=1;entryDx=0;entryDy=0;fontSize=15;fontColor=#14213D;strokeColor=#000000;strokeWidth=3;" edge="1" parent="1" source="48" target="49">
                    <mxGeometry relative="1" as="geometry">
                        <Array as="points">
                            <mxPoint x="580" y="700"/>
                        </Array>
                    </mxGeometry>
                </mxCell>
                <mxCell id="48" value="&lt;font color=&quot;#fca311&quot; style=&quot;font-size: 14px;&quot;&gt;Data pre-processing&lt;br style=&quot;font-size: 14px;&quot;&gt;&lt;/font&gt;" style="rounded=1;whiteSpace=wrap;html=1;fillColor=#4C5C68;strokeColor=#000000;fontSize=14;" vertex="1" parent="1">
                    <mxGeometry x="440" y="700" width="80" height="80" as="geometry"/>
                </mxCell>
                <mxCell id="63" style="edgeStyle=elbowEdgeStyle;rounded=0;html=1;exitX=1;exitY=0.5;exitDx=0;exitDy=0;entryX=0;entryY=0.5;entryDx=0;entryDy=0;fontSize=15;fontColor=#14213D;strokeColor=#000000;strokeWidth=3;" edge="1" parent="1" source="49" target="50">
                    <mxGeometry relative="1" as="geometry"/>
                </mxCell>
                <mxCell id="49" value="&lt;font color=&quot;#fca311&quot; style=&quot;font-size: 14px&quot;&gt;Algorithm&lt;br style=&quot;font-size: 14px&quot;&gt;&lt;/font&gt;" style="rounded=1;whiteSpace=wrap;html=1;fillColor=#4C5C68;strokeColor=#000000;fontSize=14;" vertex="1" parent="1">
                    <mxGeometry x="560" y="580" width="80" height="80" as="geometry"/>
                </mxCell>
                <mxCell id="66" style="edgeStyle=elbowEdgeStyle;rounded=0;html=1;exitX=1;exitY=0.5;exitDx=0;exitDy=0;entryX=0;entryY=0.5;entryDx=0;entryDy=0;fontSize=15;fontColor=#14213D;strokeColor=#000000;strokeWidth=3;" edge="1" parent="1" source="50" target="51">
                    <mxGeometry relative="1" as="geometry"/>
                </mxCell>
                <mxCell id="67" style="edgeStyle=orthogonalEdgeStyle;rounded=0;html=1;exitX=0.5;exitY=1;exitDx=0;exitDy=0;entryX=0.75;entryY=1;entryDx=0;entryDy=0;fontSize=15;fontColor=#14213D;strokeColor=#000000;strokeWidth=3;elbow=vertical;" edge="1" parent="1" source="50" target="49">
                    <mxGeometry relative="1" as="geometry">
                        <Array as="points">
                            <mxPoint x="720" y="700"/>
                            <mxPoint x="620" y="700"/>
                        </Array>
                    </mxGeometry>
                </mxCell>
                <mxCell id="50" value="&lt;font color=&quot;#fca311&quot; style=&quot;font-size: 14px&quot;&gt;Evaluation&lt;br style=&quot;font-size: 14px&quot;&gt;&lt;/font&gt;" style="rounded=1;whiteSpace=wrap;html=1;fillColor=#4C5C68;strokeColor=#000000;fontSize=14;" vertex="1" parent="1">
                    <mxGeometry x="680" y="580" width="80" height="80" as="geometry"/>
                </mxCell>
                <mxCell id="71" style="edgeStyle=orthogonalEdgeStyle;rounded=0;html=1;exitX=0.5;exitY=0;exitDx=0;exitDy=0;entryX=0.5;entryY=1;entryDx=0;entryDy=0;fontSize=15;fontColor=#14213D;strokeColor=#000000;strokeWidth=3;elbow=vertical;" edge="1" parent="1" source="51" target="52">
                    <mxGeometry relative="1" as="geometry"/>
                </mxCell>
                <mxCell id="51" value="&lt;font color=&quot;#fca311&quot; style=&quot;font-size: 14px&quot;&gt;Model&lt;br style=&quot;font-size: 14px&quot;&gt;&lt;/font&gt;" style="rounded=1;whiteSpace=wrap;html=1;fillColor=#4C5C68;strokeColor=#000000;fontSize=14;" vertex="1" parent="1">
                    <mxGeometry x="810" y="580" width="80" height="80" as="geometry"/>
                </mxCell>
                <mxCell id="52" value="&lt;font style=&quot;font-size: 14px&quot;&gt;&lt;font color=&quot;#14213d&quot;&gt;Prediction&lt;/font&gt;&lt;br style=&quot;font-size: 14px&quot;&gt;&lt;/font&gt;" style="rounded=1;whiteSpace=wrap;html=1;fillColor=#FCA311;strokeColor=#000000;fontSize=14;" vertex="1" parent="1">
                    <mxGeometry x="810" y="510" width="80" height="40" as="geometry"/>
                </mxCell>
                <mxCell id="58" value="&lt;font style=&quot;font-size: 17px;&quot;&gt;1a&lt;/font&gt;" style="text;html=1;align=center;verticalAlign=middle;resizable=0;points=[];autosize=1;strokeColor=none;fillColor=none;fontSize=17;fontColor=#808080;" vertex="1" parent="1">
                    <mxGeometry x="260" y="685" width="30" height="30" as="geometry"/>
                </mxCell>
                <mxCell id="69" value="&lt;font style=&quot;font-size: 17px;&quot;&gt;1b&lt;/font&gt;" style="text;html=1;align=center;verticalAlign=middle;resizable=0;points=[];autosize=1;strokeColor=none;fillColor=none;fontSize=17;fontColor=#808080;" vertex="1" parent="1">
                    <mxGeometry x="260" y="525" width="30" height="30" as="geometry"/>
                </mxCell>
                <mxCell id="75" value="&lt;font style=&quot;font-size: 17px;&quot;&gt;2c&lt;/font&gt;" style="text;html=1;align=center;verticalAlign=middle;resizable=0;points=[];autosize=1;strokeColor=none;fillColor=none;fontSize=17;fontColor=#808080;" vertex="1" parent="1">
                    <mxGeometry x="465" y="785" width="30" height="30" as="geometry"/>
                </mxCell>
                <mxCell id="76" value="&lt;font style=&quot;font-size: 17px;&quot;&gt;2a&lt;/font&gt;" style="text;html=1;align=center;verticalAlign=middle;resizable=0;points=[];autosize=1;strokeColor=none;fillColor=none;fontSize=17;fontColor=#808080;" vertex="1" parent="1">
                    <mxGeometry x="465" y="630" width="30" height="30" as="geometry"/>
                </mxCell>
                <mxCell id="77" value="&lt;font style=&quot;font-size: 17px;&quot;&gt;2b&lt;/font&gt;" style="text;html=1;align=center;verticalAlign=middle;resizable=0;points=[];autosize=1;strokeColor=none;fillColor=none;fontSize=17;fontColor=#808080;" vertex="1" parent="1">
                    <mxGeometry x="465" y="525" width="30" height="30" as="geometry"/>
                </mxCell>
                <mxCell id="78" value="&lt;font style=&quot;font-size: 17px&quot;&gt;3a&lt;/font&gt;" style="text;html=1;align=center;verticalAlign=middle;resizable=0;points=[];autosize=1;strokeColor=none;fillColor=none;fontSize=17;fontColor=#808080;" vertex="1" parent="1">
                    <mxGeometry x="585" y="630" width="30" height="30" as="geometry"/>
                </mxCell>
                <mxCell id="79" value="&lt;font style=&quot;font-size: 17px&quot;&gt;3b&lt;/font&gt;" style="text;html=1;align=center;verticalAlign=middle;resizable=0;points=[];autosize=1;strokeColor=none;fillColor=none;fontSize=17;fontColor=#808080;" vertex="1" parent="1">
                    <mxGeometry x="706" y="630" width="30" height="30" as="geometry"/>
                </mxCell>
                <mxCell id="80" value="&lt;font style=&quot;font-size: 17px&quot;&gt;3c&lt;/font&gt;" style="text;html=1;align=center;verticalAlign=middle;resizable=0;points=[];autosize=1;strokeColor=none;fillColor=none;fontSize=17;fontColor=#808080;" vertex="1" parent="1">
                    <mxGeometry x="650" y="665" width="30" height="30" as="geometry"/>
                </mxCell>
                <mxCell id="82" value="&lt;font style=&quot;font-size: 17px&quot;&gt;4&lt;/font&gt;" style="text;html=1;align=center;verticalAlign=middle;resizable=0;points=[];autosize=1;strokeColor=none;fillColor=none;fontSize=17;fontColor=#808080;" vertex="1" parent="1">
                    <mxGeometry x="841" y="634" width="19" height="23" as="geometry"/>
                </mxCell>
                <mxCell id="87" style="edgeStyle=orthogonalEdgeStyle;rounded=0;html=1;exitX=0.5;exitY=0;exitDx=0;exitDy=0;fontSize=17;fontColor=#333333;strokeColor=#000000;strokeWidth=3;elbow=vertical;" edge="1" parent="1" source="86" target="82">
                    <mxGeometry relative="1" as="geometry"/>
                </mxCell>
                <mxCell id="86" value="&lt;font style=&quot;font-size: 14px&quot;&gt;&lt;font color=&quot;#14213d&quot;&gt;New data&lt;/font&gt;&lt;br style=&quot;font-size: 14px&quot;&gt;&lt;/font&gt;" style="rounded=1;whiteSpace=wrap;html=1;fillColor=#FCA311;strokeColor=#000000;fontSize=14;" vertex="1" parent="1">
                    <mxGeometry x="810" y="685" width="80" height="40" as="geometry"/>
                </mxCell>
            </root>
        </mxGraphModel>
    </diagram>
</mxfile>